<svg width="281" height="188" viewBox="0 0 281 188" fill="none" xmlns="http://www.w3.org/2000/svg">
<g clip-path="url(#clip0_8_86)">
<path d="M62.2671 18.8322H44.3472C42.6243 18.8336 40.9725 19.4841 39.7543 20.6407C38.5361 21.7973 37.851 23.3656 37.8495 25.0013V43.4471C37.6204 43.4341 37.3913 43.4146 37.1655 43.3886C32.9201 42.9646 28.8839 41.4229 25.512 38.9375C22.1401 36.452 19.5665 33.1216 18.0815 29.3218C16.5964 25.522 16.259 21.4039 17.1072 17.4317C17.9553 13.4595 19.9554 9.79131 22.8819 6.84063C25.8084 3.88995 29.5448 1.77415 33.6701 0.731773C37.7953 -0.310601 42.1452 -0.238093 46.2293 0.941126C50.3134 2.12035 53.9694 4.35938 56.785 7.40578C59.6005 10.4522 61.4638 14.1848 62.1646 18.1828C62.2021 18.3971 62.2364 18.6146 62.2671 18.8322Z" fill="#F2F2F2"/>
<path d="M273.818 18.1828H44.3472C42.4431 18.1848 40.6177 18.9038 39.2713 20.1821C37.9249 21.4604 37.1676 23.1935 37.1655 25.0013V139.942C37.1676 141.75 37.9249 143.483 39.2713 144.762C40.6177 146.04 42.4431 146.759 44.3472 146.761H273.818C275.722 146.759 277.548 146.04 278.894 144.762C280.241 143.483 280.998 141.75 281 139.942V25.0013C280.998 23.1935 280.241 21.4604 278.894 20.1821C277.548 18.9038 275.722 18.1848 273.818 18.1828ZM280.316 139.942C280.314 141.578 279.629 143.146 278.411 144.303C277.193 145.46 275.541 146.11 273.818 146.112H44.3472C42.6244 146.11 40.9726 145.46 39.7543 144.303C38.5361 143.146 37.8511 141.578 37.8495 139.942V25.0013C37.8511 23.3656 38.5361 21.7973 39.7543 20.6407C40.9726 19.4841 42.6244 18.8336 44.3472 18.8322H273.818C275.541 18.8336 277.193 19.4841 278.411 20.6407C279.629 21.7973 280.314 23.3656 280.316 25.0013V139.942Z" fill="#3F3D56"/>
<path d="M262.533 36.8103H55.6326C55.5419 36.8103 55.455 36.7761 55.3908 36.7152C55.3267 36.6543 55.2906 36.5717 55.2906 36.4856C55.2906 36.3994 55.3267 36.3169 55.3908 36.256C55.455 36.1951 55.5419 36.1609 55.6326 36.1609H262.533C262.624 36.1609 262.711 36.1951 262.775 36.256C262.839 36.3169 262.875 36.3994 262.875 36.4856C262.875 36.5717 262.839 36.6543 262.775 36.7152C262.711 36.7761 262.624 36.8103 262.533 36.8103Z" fill="#3F3D56"/>
<path d="M114.112 132.799C114.021 132.799 113.934 132.765 113.87 132.704C113.806 132.643 113.77 132.561 113.77 132.475V25.6507C113.77 25.5646 113.806 25.482 113.87 25.4211C113.934 25.3602 114.021 25.326 114.112 25.326C114.203 25.326 114.29 25.3602 114.354 25.4211C114.418 25.482 114.454 25.5646 114.454 25.6507V132.475C114.454 132.561 114.418 132.643 114.354 132.704C114.29 132.765 114.203 132.799 114.112 132.799V132.799Z" fill="#3F3D56"/>
<path d="M165.751 132.799C165.661 132.799 165.574 132.765 165.51 132.704C165.446 132.643 165.409 132.561 165.409 132.475V25.6507C165.409 25.5646 165.446 25.482 165.51 25.4211C165.574 25.3602 165.661 25.326 165.751 25.326C165.842 25.326 165.929 25.3602 165.993 25.4211C166.057 25.482 166.093 25.5646 166.093 25.6507V132.475C166.093 132.561 166.057 132.643 165.993 132.704C165.929 132.765 165.842 132.799 165.751 132.799V132.799Z" fill="#3F3D56"/>
<path d="M217.391 132.799C217.3 132.799 217.213 132.765 217.149 132.704C217.085 132.643 217.049 132.561 217.049 132.475V25.6507C217.049 25.5646 217.085 25.482 217.149 25.4211C217.213 25.3602 217.3 25.326 217.391 25.326C217.482 25.326 217.569 25.3602 217.633 25.4211C217.697 25.482 217.733 25.5646 217.733 25.6507V132.475C217.733 132.561 217.697 132.643 217.633 132.704C217.569 132.765 217.482 132.799 217.391 132.799V132.799Z" fill="#3F3D56"/>
<path d="M80.9106 70.3243H68.4145C68.0065 70.3238 67.6154 70.1698 67.3269 69.8959C67.0383 69.6219 66.8761 69.2505 66.8756 68.8632V54.8626C66.8761 54.4752 67.0383 54.1038 67.3269 53.8299C67.6154 53.5559 68.0065 53.4019 68.4145 53.4014H80.9106C81.3186 53.4019 81.7098 53.5559 81.9983 53.8299C82.2868 54.1038 82.4491 54.4752 82.4496 54.8626V68.8632C82.4491 69.2506 82.2868 69.6219 81.9983 69.8959C81.7098 70.1698 81.3186 70.3238 80.9106 70.3243V70.3243Z" fill="#6C63FF"/>
<path d="M98.6938 110.261H86.1977C85.7897 110.261 85.3985 110.107 85.11 109.833C84.8215 109.559 84.6592 109.188 84.6588 108.8V94.7997C84.6592 94.4123 84.8215 94.0409 85.11 93.767C85.3985 93.4931 85.7897 93.339 86.1977 93.3386H98.6938C99.1018 93.339 99.4929 93.4931 99.7815 93.767C100.07 94.0409 100.232 94.4123 100.233 94.7997V108.8C100.232 109.188 100.07 109.559 99.7815 109.833C99.4929 110.107 99.1018 110.261 98.6938 110.261V110.261Z" fill="#6C63FF"/>
<path d="M139.048 78.7663H126.552C126.144 78.7658 125.753 78.6118 125.464 78.3378C125.176 78.0639 125.013 77.6925 125.013 77.3052V63.3046C125.013 62.9172 125.176 62.5458 125.464 62.2719C125.753 61.998 126.144 61.8439 126.552 61.8434H139.048C139.456 61.8439 139.847 61.998 140.136 62.2719C140.424 62.5458 140.586 62.9172 140.587 63.3046V77.3052C140.586 77.6926 140.424 78.0639 140.136 78.3379C139.847 78.6118 139.456 78.7658 139.048 78.7663V78.7663Z" fill="#6C63FF"/>
<path d="M191.371 63.5057H178.875C178.467 63.5053 178.076 63.3512 177.788 63.0773C177.499 62.8034 177.337 62.432 177.336 62.0446V48.044C177.337 47.6566 177.499 47.2852 177.788 47.0113C178.076 46.7374 178.467 46.5833 178.875 46.5829H191.371C191.779 46.5833 192.171 46.7374 192.459 47.0113C192.748 47.2852 192.91 47.6566 192.91 48.044V62.0446C192.91 62.432 192.748 62.8034 192.459 63.0773C192.171 63.3512 191.779 63.5053 191.371 63.5057V63.5057Z" fill="#6C63FF"/>
<path d="M239.591 63.5057H227.095C226.687 63.5053 226.296 63.3512 226.007 63.0773C225.719 62.8034 225.557 62.432 225.556 62.0446V48.044C225.557 47.6566 225.719 47.2852 226.007 47.0113C226.296 46.7374 226.687 46.5833 227.095 46.5829H239.591C239.999 46.5833 240.39 46.7374 240.679 47.0113C240.967 47.2852 241.13 47.6566 241.13 48.044V62.0446C241.13 62.432 240.967 62.8034 240.679 63.0773C240.39 63.3512 239.999 63.5053 239.591 63.5057V63.5057Z" fill="#6C63FF"/>
<path d="M261.82 67.402H249.324C248.916 67.4016 248.525 67.2475 248.236 66.9736C247.948 66.6997 247.786 66.3283 247.785 65.9409V51.9403C247.786 51.5529 247.948 51.1816 248.236 50.9076C248.525 50.6337 248.916 50.4796 249.324 50.4792H261.82C262.228 50.4796 262.619 50.6337 262.908 50.9076C263.196 51.1816 263.359 51.5529 263.359 51.9403V65.9409C263.359 66.3283 263.196 66.6997 262.908 66.9736C262.619 67.2475 262.228 67.4016 261.82 67.402Z" fill="#E6E6E6"/>
<path d="M251.903 92.4034H239.407C238.999 92.4029 238.607 92.2488 238.319 91.9749C238.03 91.701 237.868 91.3296 237.868 90.9422V76.9416C237.868 76.5543 238.03 76.1829 238.319 75.909C238.607 75.635 238.999 75.481 239.407 75.4805H251.903C252.311 75.481 252.702 75.635 252.99 75.909C253.279 76.1829 253.441 76.5543 253.442 76.9416V90.9423C253.441 91.3296 253.279 91.701 252.99 91.9749C252.702 92.2488 252.311 92.4029 251.903 92.4034Z" fill="#E6E6E6"/>
<path d="M209.497 87.2083H197.001C196.593 87.2078 196.201 87.0538 195.913 86.7798C195.624 86.5059 195.462 86.1345 195.462 85.7472V71.7466C195.462 71.3592 195.624 70.9878 195.913 70.7139C196.201 70.44 196.593 70.2859 197.001 70.2854H209.497C209.905 70.2859 210.296 70.44 210.584 70.7139C210.873 70.9878 211.035 71.3592 211.036 71.7466V85.7472C211.035 86.1346 210.873 86.5059 210.584 86.7799C210.296 87.0538 209.905 87.2078 209.497 87.2083Z" fill="#FF6584"/>
<path d="M185.216 92.4034H172.72C172.312 92.4029 171.921 92.2488 171.632 91.9749C171.344 91.701 171.181 91.3296 171.181 90.9422V76.9416C171.181 76.5543 171.344 76.1829 171.632 75.909C171.921 75.635 172.312 75.481 172.72 75.4805H185.216C185.624 75.481 186.015 75.635 186.303 75.909C186.592 76.1829 186.754 76.5543 186.755 76.9416V90.9423C186.754 91.3296 186.592 91.701 186.303 91.9749C186.015 92.2488 185.624 92.4029 185.216 92.4034V92.4034Z" fill="#E6E6E6"/>
<path d="M132.892 114.482H120.396C119.988 114.482 119.597 114.328 119.308 114.054C119.02 113.78 118.858 113.409 118.857 113.021V99.0207C118.858 98.6333 119.02 98.262 119.308 97.988C119.597 97.7141 119.988 97.56 120.396 97.5596H132.892C133.3 97.56 133.691 97.7141 133.98 97.988C134.268 98.262 134.431 98.6333 134.431 99.0207V113.021C134.431 113.409 134.268 113.78 133.98 114.054C133.691 114.328 133.3 114.482 132.892 114.482Z" fill="#E6E6E6"/>
<path d="M69.6252 95.975H57.1291C56.7211 95.9745 56.3299 95.8205 56.0414 95.5465C55.7529 95.2726 55.5906 94.9012 55.5901 94.5139V80.5133C55.5906 80.1259 55.7529 79.7545 56.0414 79.4806C56.3299 79.2066 56.7211 79.0526 57.1291 79.0521H69.6252C70.0332 79.0526 70.4243 79.2066 70.7129 79.4806C71.0014 79.7545 71.1636 80.1259 71.1641 80.5133V94.5139C71.1636 94.9012 71.0014 95.2726 70.7129 95.5465C70.4243 95.8205 70.0332 95.9745 69.6252 95.975V95.975Z" fill="#FF6584"/>
<path d="M104.849 70.3243H92.3534C91.9454 70.3238 91.5542 70.1698 91.2657 69.8959C90.9772 69.6219 90.8149 69.2505 90.8145 68.8632V54.8626C90.8149 54.4752 90.9772 54.1038 91.2657 53.8299C91.5542 53.5559 91.9454 53.4019 92.3534 53.4014H104.849C105.257 53.4019 105.649 53.5559 105.937 53.8299C106.226 54.1038 106.388 54.4752 106.388 54.8626V68.8632C106.388 69.2506 106.226 69.6219 105.937 69.8959C105.649 70.1698 105.257 70.3238 104.849 70.3243V70.3243Z" fill="#E6E6E6"/>
<path d="M94.6188 31.4952H75.1257C74.7629 31.4952 74.415 31.3583 74.1585 31.1148C73.9019 30.8712 73.7578 30.5408 73.7578 30.1964C73.7578 29.8519 73.9019 29.5216 74.1585 29.278C74.415 29.0345 74.7629 28.8976 75.1257 28.8976H94.6188C94.9816 28.8976 95.3296 29.0345 95.5861 29.278C95.8426 29.5216 95.9868 29.8519 95.9868 30.1964C95.9868 30.5408 95.8426 30.8712 95.5861 31.1148C95.3296 31.3583 94.9816 31.4952 94.6188 31.4952Z" fill="#CCCCCC"/>
<path d="M149.678 31.4952H130.185C129.822 31.4952 129.474 31.3583 129.218 31.1148C128.961 30.8712 128.817 30.5408 128.817 30.1964C128.817 29.8519 128.961 29.5216 129.218 29.278C129.474 29.0345 129.822 28.8976 130.185 28.8976H149.678C150.041 28.8976 150.389 29.0345 150.645 29.278C150.902 29.5216 151.046 29.8519 151.046 30.1964C151.046 30.5408 150.902 30.8712 150.645 31.1148C150.389 31.3583 150.041 31.4952 149.678 31.4952Z" fill="#CCCCCC"/>
<path d="M201.318 31.4952H181.825C181.462 31.4952 181.114 31.3583 180.857 31.1148C180.601 30.8712 180.457 30.5408 180.457 30.1964C180.457 29.8519 180.601 29.5216 180.857 29.278C181.114 29.0345 181.462 28.8976 181.825 28.8976H201.318C201.681 28.8976 202.029 29.0345 202.285 29.278C202.542 29.5216 202.686 29.8519 202.686 30.1964C202.686 30.5408 202.542 30.8712 202.285 31.1148C202.029 31.3583 201.681 31.4952 201.318 31.4952Z" fill="#CCCCCC"/>
<path d="M249.537 31.4952H230.044C229.682 31.4952 229.334 31.3583 229.077 31.1148C228.821 30.8712 228.676 30.5408 228.676 30.1964C228.676 29.8519 228.821 29.5216 229.077 29.278C229.334 29.0345 229.682 28.8976 230.044 28.8976H249.537C249.9 28.8976 250.248 29.0345 250.505 29.278C250.761 29.5216 250.905 29.8519 250.905 30.1964C250.905 30.5408 250.761 30.8712 250.505 31.1148C250.248 31.3583 249.9 31.4952 249.537 31.4952Z" fill="#CCCCCC"/>
<path d="M50.9587 126.595C50.4584 126.548 49.9748 126.398 49.5422 126.155C49.1096 125.912 48.7383 125.582 48.4547 125.187C48.171 124.793 47.9818 124.345 47.9004 123.874C47.819 123.403 47.8473 122.921 47.9834 122.461L39.2174 114.714L43.8522 113.597L52.4722 120.235C53.2701 120.504 53.9366 121.04 54.3454 121.744C54.7543 122.448 54.8771 123.269 54.6905 124.053C54.504 124.837 54.021 125.529 53.3332 125.997C52.6454 126.466 51.8006 126.678 50.9587 126.595V126.595Z" fill="#FFB8B8"/>
<path d="M63.0632 183.858H67.2559L69.2504 168.504H63.0625L63.0632 183.858Z" fill="#FFB8B8"/>
<path d="M75.3418 187.554L62.1649 187.554L62.1647 182.721L70.2505 182.72C71.6007 182.72 72.8957 183.23 73.8505 184.136C74.8053 185.042 75.3417 186.272 75.3418 187.554V187.554L75.3418 187.554Z" fill="#2F2E41"/>
<path d="M34.3164 180.984L38.3682 182.008L44.4559 167.658L38.4763 166.147L34.3164 180.984Z" fill="#FFB8B8"/>
<path d="M45.1805 187.555L32.447 184.337L33.7565 179.666L41.5703 181.641C42.8751 181.971 43.9884 182.779 44.6655 183.888C45.3425 184.997 45.5278 186.316 45.1805 187.555V187.555V187.555Z" fill="#2F2E41"/>
<path d="M68.3834 180.951H61.9858C61.5817 180.952 61.1917 180.81 60.8926 180.552C60.5935 180.294 60.4069 179.939 60.3696 179.557L56.4858 141.266C56.4574 140.985 56.327 140.722 56.117 140.522C55.907 140.323 55.6304 140.198 55.3346 140.171C55.0389 140.144 54.7422 140.215 54.4955 140.372C54.2488 140.529 54.0673 140.763 53.9822 141.033L42.7058 176.814C42.5865 177.195 42.3172 177.517 41.9541 177.713C41.5909 177.909 41.1619 177.965 40.7565 177.868L34.8049 176.455C34.5972 176.406 34.4018 176.318 34.23 176.197C34.0581 176.076 33.9132 175.923 33.8037 175.749C33.6941 175.574 33.622 175.381 33.5915 175.179C33.561 174.978 33.5727 174.773 33.626 174.576C33.7232 174.216 43.342 138.526 43.426 138.159C45.6054 122.909 48.2128 118.823 49.6135 116.628C49.7295 116.446 49.836 116.279 49.9319 116.121C50.052 115.923 50.7912 113.964 51.2601 112.691C51.321 112.484 51.4264 112.291 51.5697 112.125C51.7131 111.958 51.8912 111.822 52.0928 111.724C57.9786 108.866 64.865 110.844 66.8354 111.519C67.1621 111.628 67.4427 111.835 67.635 112.108C73.5461 120.573 70.6453 169.738 70.0037 179.508C69.977 179.899 69.7947 180.266 69.4938 180.534C69.1929 180.801 68.7959 180.951 68.3834 180.951V180.951Z" fill="#2F2E41"/>
<path d="M51.8735 83.9607C56.5124 83.9607 60.273 80.3902 60.273 75.9859C60.273 71.5815 56.5124 68.0111 51.8735 68.0111C47.2346 68.0111 43.4741 71.5815 43.4741 75.9859C43.4741 80.3902 47.2346 83.9607 51.8735 83.9607Z" fill="#FFB8B8"/>
<path d="M50.9835 114.239L50.9232 114.184C50.81 114.08 39.6187 103.67 41.067 94.0447C41.6864 89.9277 45.1949 87.2972 51.2129 86.437C53.4238 86.1252 55.6789 86.5816 57.5638 87.7222C59.4486 88.8628 60.8365 90.611 61.4723 92.6455L67.4228 111.96L50.9835 114.239Z" fill="#CCCCCC"/>
<path d="M45.2557 121.643L37.2811 114.12C36.7359 113.602 36.34 112.96 36.1316 112.256C35.9232 111.551 35.9092 110.807 36.0911 110.096L39.9516 95.1866C40.0673 94.7398 40.2783 94.3203 40.5715 93.9541C40.8648 93.5879 41.2341 93.2827 41.6567 93.0574C42.0792 92.8322 42.5459 92.6917 43.0279 92.6446C43.5099 92.5975 43.997 92.6449 44.459 92.7837C45.3395 93.0532 46.075 93.6375 46.5096 94.4129C46.9443 95.1883 47.044 96.0938 46.7876 96.9378L42.7233 110.054L49.2956 116.755L45.2557 121.643Z" fill="#CCCCCC"/>
<path d="M88.0281 95.9669C87.8173 96.4002 87.5089 96.7843 87.1248 97.0923C86.7406 97.4002 86.29 97.6244 85.8048 97.7491C85.3195 97.8738 84.8113 97.896 84.316 97.8141C83.8207 97.7322 83.3504 97.5481 82.9381 97.2749L72.2924 102.514L72.7629 98.0635L82.2006 92.5181C82.7299 91.891 83.483 91.47 84.3174 91.3348C85.1518 91.1997 86.0094 91.3599 86.7277 91.785C87.446 92.2101 87.9752 92.8706 88.2148 93.6413C88.4545 94.4121 88.3881 95.2395 88.0281 95.9669H88.0281Z" fill="#FFB8B8"/>
<path d="M81.7756 99.2794L71.3977 103.537C70.7069 103.818 69.9516 103.926 69.2043 103.85C68.457 103.774 67.7429 103.517 67.1307 103.103L53.9339 94.1253C53.5401 93.8573 53.2083 93.5155 52.9592 93.1209C52.7101 92.7263 52.5489 92.2874 52.4856 91.8313C52.4224 91.3752 52.4584 90.9116 52.5914 90.4692C52.7244 90.0269 52.9516 89.6151 53.259 89.2595C53.8497 88.5834 54.6944 88.1521 55.6141 88.0571C56.5339 87.962 57.4565 88.2107 58.1865 88.7504L69.5022 97.206L78.4965 93.9022L81.7756 99.2794Z" fill="#CCCCCC"/>
<path d="M53.266 78.5413C54.3022 77.3086 56.2381 77.2424 57.6614 76.4293C59.5259 75.3642 60.2967 72.984 59.6959 70.9985C59.0951 69.0129 57.3232 67.4655 55.2917 66.7254C53.2602 65.9853 51 65.9762 48.8569 66.3339C45.6661 66.8666 42.5247 68.2805 40.5787 70.7397C38.6326 73.1988 38.1374 76.8003 39.901 79.3805C40.7116 80.5664 41.9629 81.5453 42.2866 82.9252C42.7114 84.7369 41.373 86.4841 39.9391 87.7456C38.3055 89.1828 36.4314 90.3865 35.0002 92.0065C33.569 93.6266 32.6146 95.8399 33.2677 97.8614C33.8149 99.5551 35.4071 100.803 37.1531 101.428C38.8991 102.053 40.8008 102.143 42.6663 102.178C44.4779 102.211 46.402 102.17 47.9281 101.242C49.5618 100.249 50.4341 98.3659 50.4985 96.5253C50.563 94.6847 49.9152 92.8815 49.0469 91.2346C48.5294 90.253 47.9277 89.3019 47.5839 88.2539C47.24 87.2058 47.1804 86.0167 47.7311 85.0515C48.31 84.037 49.4811 83.4251 50.6736 83.2026C50.7355 83.1911 50.8011 83.1808 50.8697 83.1716C51.209 83.1298 51.5358 83.0231 51.8304 82.858C52.1251 82.6928 52.3813 82.4727 52.5838 82.2108C52.7863 81.949 52.9307 81.6508 53.0083 81.3345C53.086 81.0181 53.0952 80.6901 53.0355 80.3702C52.8997 79.6512 52.9114 78.9631 53.266 78.5413Z" fill="#2F2E41"/>
<path d="M165.257 184.198H161.064L159.069 168.844L165.257 168.844L165.257 184.198Z" fill="#A0616A"/>
<path d="M158.069 183.061H166.155V187.894H152.978C152.978 187.259 153.11 186.631 153.365 186.044C153.621 185.458 153.996 184.925 154.469 184.476C154.942 184.027 155.503 183.671 156.121 183.428C156.738 183.186 157.4 183.061 158.069 183.061Z" fill="#2F2E41"/>
<path d="M195.678 179.689L191.864 181.343L183.33 168.164L188.959 165.723L195.678 179.689Z" fill="#A0616A"/>
<path d="M188.642 181.49L195.997 178.3L198.112 182.697L186.127 187.894C185.849 187.317 185.694 186.693 185.67 186.059C185.646 185.425 185.754 184.792 185.987 184.197C186.221 183.603 186.576 183.057 187.031 182.593C187.487 182.128 188.034 181.753 188.642 181.49V181.49Z" fill="#2F2E41"/>
<path d="M183.468 132.428C183.87 132.141 184.2 131.774 184.436 131.352C184.672 130.931 184.808 130.466 184.834 129.989C184.861 129.512 184.776 129.036 184.588 128.593C184.399 128.151 184.11 127.753 183.742 127.428L188.671 116.811L182.409 117.818L178.689 127.746C178.155 128.37 177.88 129.158 177.917 129.96C177.954 130.763 178.299 131.525 178.888 132.103C179.477 132.68 180.269 133.032 181.113 133.092C181.957 133.152 182.795 132.915 183.468 132.428Z" fill="#A0616A"/>
<path d="M164.989 180.15H160.984C160.595 180.148 160.222 180.008 159.937 179.757C159.653 179.506 159.479 179.162 159.449 178.794L157.265 123.415C157.249 123.203 157.281 122.99 157.361 122.791C157.44 122.592 157.565 122.412 157.725 122.264C157.885 122.115 158.078 122.001 158.29 121.931C158.501 121.86 158.726 121.835 158.949 121.855L182.113 124.191C182.489 124.226 182.838 124.39 183.094 124.653C183.35 124.916 183.495 125.259 183.503 125.617L183.988 150.046C183.991 150.178 184.018 150.309 184.068 150.433L193.57 173.828C193.644 174.009 193.678 174.202 193.673 174.395C193.667 174.589 193.62 174.78 193.536 174.956C193.452 175.133 193.332 175.291 193.183 175.423C193.033 175.555 192.858 175.658 192.666 175.725L188.607 177.145C188.255 177.268 187.867 177.264 187.517 177.135C187.167 177.005 186.879 176.759 186.707 176.442L175.034 154.892C174.971 154.775 174.924 154.65 174.896 154.521L172.902 145.4C172.844 145.135 172.689 144.899 172.464 144.733C172.239 144.567 171.96 144.483 171.676 144.495C171.392 144.507 171.121 144.615 170.913 144.8C170.705 144.984 170.573 145.233 170.541 145.501L166.518 178.855C166.475 179.211 166.296 179.54 166.014 179.779C165.732 180.018 165.367 180.15 164.989 180.15V180.15Z" fill="#2F2E41"/>
<path d="M166.984 80.1142C171.623 80.1142 175.383 76.5438 175.383 72.1394C175.383 67.7351 171.623 64.1647 166.984 64.1647C162.345 64.1647 158.584 67.7351 158.584 72.1394C158.584 76.5438 162.345 80.1142 166.984 80.1142Z" fill="#A0616A"/>
<path d="M172.744 128.479C167.048 128.419 161.488 126.82 156.714 123.869L156.632 123.815L156.641 123.721L159.854 88.1947C159.965 86.9895 160.531 85.863 161.449 85.0237C162.367 84.1844 163.574 83.689 164.846 83.6291C169.01 83.4474 174.604 83.6765 177.598 85.7936C182.122 88.9933 184.303 93.8115 183.581 99.0127C182.083 109.799 183.78 124.348 183.978 125.972L183.992 126.089L183.88 126.138C180.392 127.679 176.591 128.478 172.744 128.479V128.479Z" fill="#6C63FF"/>
<path d="M183.939 126.032C183.703 126.031 183.469 125.984 183.252 125.894C183.035 125.803 182.841 125.671 182.681 125.505L180.843 123.602C180.645 123.395 180.506 123.143 180.439 122.871C180.373 122.598 180.381 122.314 180.464 122.045L184.654 108.582L178.279 95.8726C177.981 95.2776 177.908 94.6035 178.073 93.9636C178.217 93.4018 178.538 92.8949 178.992 92.5096C179.446 92.1244 180.013 91.879 180.617 91.8057C181.221 91.7324 181.835 91.8347 182.376 92.0992C182.918 92.3636 183.363 92.7777 183.651 93.2869L192.302 106.613C192.653 107.154 192.859 107.768 192.902 108.402C192.945 109.036 192.824 109.67 192.548 110.249L185.5 125.076C185.384 125.321 185.205 125.535 184.98 125.698C184.755 125.861 184.491 125.969 184.212 126.011C184.122 126.025 184.031 126.032 183.939 126.032V126.032Z" fill="#6C63FF"/>
<path d="M124.734 100.315C125.138 100.599 125.602 100.797 126.095 100.893C126.587 100.989 127.096 100.981 127.585 100.871C128.074 100.76 128.531 100.549 128.925 100.252C129.319 99.9551 129.639 99.58 129.864 99.1529L141.983 100.645L139.198 95.2266L128.116 94.6402C127.335 94.3297 126.462 94.3018 125.661 94.5619C124.86 94.8219 124.188 95.3519 123.771 96.0513C123.354 96.7508 123.222 97.5711 123.399 98.3568C123.577 99.1425 124.052 99.8391 124.734 100.315V100.315Z" fill="#A0616A"/>
<path d="M151.447 103.274C151.236 103.274 151.025 103.26 150.816 103.233L131.751 100.722C131.439 100.681 131.143 100.568 130.889 100.391C130.635 100.215 130.432 99.9813 130.297 99.7116C130.253 99.6247 130.217 99.5347 130.188 99.4424H130.188C130.114 99.2027 130.094 98.9511 130.128 98.7034C130.161 98.4557 130.249 98.2174 130.385 98.0035L131.962 95.52C132.132 95.2545 132.371 95.0349 132.656 94.8822C132.94 94.7295 133.262 94.6488 133.589 94.6478H133.591L150.21 94.6659L162.622 84.1079C163.2 83.6178 163.937 83.3312 164.711 83.2963C165.39 83.2664 166.063 83.4327 166.641 83.7733C167.219 84.1138 167.674 84.6127 167.947 85.2039C168.22 85.7952 168.298 86.4512 168.17 87.0853C168.043 87.7195 167.716 88.302 167.232 88.7561L154.847 101.834C154.419 102.287 153.894 102.65 153.309 102.898C152.723 103.146 152.089 103.274 151.447 103.274V103.274Z" fill="#6C63FF"/>
<path d="M167.939 79.234C168.706 77.5474 169.356 75.3012 167.883 74.1087C167.029 73.417 165.799 73.4156 164.681 73.3295C161.528 73.0871 158.284 71.7101 156.743 69.0879C155.202 66.4657 156.063 62.5666 158.969 61.3836C160.929 60.5862 163.175 61.1294 165.226 61.6816L171.383 63.3394C173.213 63.832 175.134 64.3753 176.451 65.6777C178.552 67.7548 178.395 71.2662 176.726 73.671C175.058 76.0758 172.545 78.5838 169.669 79.4969L167.939 79.234Z" fill="#2F2E41"/>
<path d="M252.892 188H0.407155C0.353582 188 0.300507 187.99 0.250967 187.971C0.201428 187.952 0.156402 187.923 0.118465 187.887C0.0805285 187.851 0.050428 187.809 0.0298906 187.762C0.00935315 187.715 -0.0012207 187.664 -0.0012207 187.613C-0.0012207 187.563 0.00935315 187.512 0.0298906 187.465C0.050428 187.418 0.0805285 187.376 0.118465 187.34C0.156402 187.304 0.201428 187.275 0.250967 187.256C0.300507 187.237 0.353582 187.227 0.407155 187.227H252.892C252.945 187.227 252.998 187.237 253.048 187.256C253.097 187.275 253.143 187.304 253.18 187.34C253.218 187.376 253.248 187.418 253.269 187.465C253.29 187.512 253.3 187.563 253.3 187.613C253.3 187.664 253.29 187.715 253.269 187.762C253.248 187.809 253.218 187.851 253.18 187.887C253.143 187.923 253.097 187.952 253.048 187.971C252.998 187.99 252.945 188 252.892 188V188Z" fill="#3F3D56"/>
</g>
<defs>
<clipPath id="clip0_8_86">
<rect width="281" height="188" fill="white"/>
</clipPath>
</defs>
</svg>
