<svg width="887" height="143" viewBox="0 0 887 143" fill="none" xmlns="http://www.w3.org/2000/svg">
<path d="M1052 57.494L1016.8 63.9022C981.6 70.0708 911.2 83.2465 840.8 86.241C770.4 89.2355 700 83.2465 629.6 89.4152C559.2 95.8233 488.8 114.988 418.4 127.744C348 140.741 277.6 146.729 207.2 140.561C136.8 134.153 66.4 114.988 31.2 105.406L-4.00002 95.8233V-5.00903e-06L31.2 -5.00903e-06C66.4 -5.00903e-06 136.8 -5.00903e-06 207.2 -5.00903e-06C277.6 -5.00903e-06 348 -5.00903e-06 418.4 -5.00903e-06C488.8 -5.00903e-06 559.2 -5.00903e-06 629.6 -5.00903e-06C700 -5.00903e-06 770.4 -5.00903e-06 840.8 -5.00903e-06C911.2 -5.00903e-06 981.6 -5.00903e-06 1016.8 -5.00903e-06H1052V57.494Z" fill="#F9F871"/>
</svg>
