<svg width="291" height="228" viewBox="0 0 291 228" fill="none" xmlns="http://www.w3.org/2000/svg">
<g clip-path="url(#clip0_6_4)">
<path d="M249.313 123.512C249.313 158.58 229.509 189.605 199.15 208.491C179.686 220.601 155.879 227.723 130.175 227.723C95.9314 227.723 69.8103 214.287 50.1614 193.705C32.0504 174.739 19.4398 149.699 11.0371 123.512C-26.4745 6.5909 36.189 -25.3067 130.175 19.3006C190.016 47.7054 249.313 65.9591 249.313 123.512Z" fill="#6C63FF"/>
<path d="M199.15 62.3029V208.768C179.686 220.879 155.879 228 130.175 228C95.9314 228 69.8103 214.564 50.1614 193.982V62.3029H199.15Z" fill="#F2F2F2"/>
<path d="M64.4917 133.669C72.2925 131.093 80.3861 129.595 88.5638 129.213C92.6615 129.032 96.7666 129.199 100.838 129.712C104.87 130.266 108.854 131.151 112.751 132.36C116.601 133.517 120.398 134.854 124.236 136.056C128.134 137.292 132.097 138.296 136.106 139.063C140.093 139.812 144.121 140.31 148.166 140.555C152.172 140.797 156.217 140.844 160.212 140.401C163.943 140.028 167.598 139.066 171.05 137.549C174.269 136.09 177.244 134.109 179.864 131.68C180.517 131.074 181.146 130.441 181.75 129.782C182.107 129.395 181.541 128.806 181.184 129.194C176.078 134.736 169.366 138.172 162.086 139.32C158.12 139.945 154.078 139.981 150.078 139.82C145.987 139.656 141.911 139.228 137.872 138.539C133.881 137.852 129.934 136.92 126.05 135.746C122.235 134.598 118.472 133.275 114.67 132.083C110.836 130.832 106.921 129.864 102.955 129.185C98.9774 128.556 94.9572 128.266 90.9344 128.319C82.896 128.452 74.9091 129.68 67.1783 131.971C66.2073 132.254 65.2408 132.553 64.2788 132.867C63.7886 133.027 63.9979 133.83 64.4917 133.669H64.4917Z" fill="#3F3D56"/>
<path d="M64.4917 154.736C72.2925 152.16 80.3861 150.662 88.5638 150.281C92.6615 150.1 96.7666 150.266 100.838 150.779C104.87 151.333 108.854 152.218 112.751 153.427C116.601 154.584 120.398 155.921 124.236 157.123C128.134 158.359 132.097 159.363 136.106 160.13C140.093 160.879 144.121 161.378 148.166 161.623C152.172 161.864 156.217 161.911 160.212 161.468C163.943 161.095 167.598 160.134 171.05 158.616C174.269 157.158 177.244 155.176 179.864 152.747C180.517 152.141 181.146 151.509 181.75 150.849C182.107 150.463 181.541 149.874 181.184 150.261C176.078 155.803 169.366 159.239 162.086 160.387C158.12 161.012 154.078 161.048 150.078 160.887C145.987 160.723 141.911 160.296 137.872 159.607C133.881 158.92 129.934 157.987 126.05 156.813C122.235 155.666 118.472 154.343 114.67 153.15C110.836 151.9 106.921 150.931 102.955 150.252C98.9774 149.623 94.9572 149.333 90.9344 149.386C82.896 149.519 74.9091 150.747 67.1783 153.038C66.2073 153.321 65.2408 153.62 64.2788 153.934C63.7886 154.094 63.9979 154.897 64.4917 154.736H64.4917Z" fill="#3F3D56"/>
<path d="M64.4917 114.542C72.2925 111.966 80.3861 110.468 88.5638 110.086C92.6615 109.905 96.7666 110.072 100.838 110.585C104.87 111.139 108.854 112.024 112.751 113.233C116.601 114.39 120.398 115.727 124.236 116.929C128.134 118.165 132.097 119.169 136.106 119.936C140.093 120.685 144.121 121.184 148.166 121.428C152.172 121.67 156.217 121.717 160.212 121.274C163.943 120.901 167.598 119.939 171.05 118.422C174.269 116.963 177.244 114.982 179.864 112.553C180.517 111.947 181.146 111.314 181.75 110.655C182.107 110.268 181.541 109.68 181.184 110.067C176.078 115.609 169.366 119.045 162.086 120.193C158.12 120.818 154.078 120.854 150.078 120.693C145.987 120.529 141.911 120.101 137.872 119.413C133.881 118.725 129.934 117.793 126.05 116.619C122.235 115.471 118.472 114.149 114.67 112.956C110.836 111.706 106.921 110.737 102.955 110.058C98.9774 109.429 94.9572 109.139 90.9344 109.192C82.896 109.325 74.9091 110.553 67.1783 112.844C66.2073 113.127 65.2408 113.426 64.2788 113.74C63.7886 113.9 63.9979 114.703 64.4917 114.542H64.4917Z" fill="#3F3D56"/>
<path d="M63.5373 78.3785C65.4754 77.4872 67.6955 77.6426 69.7068 78.1595C71.8755 78.7167 73.9177 79.6859 76.0526 80.356C79.8739 81.5381 83.9331 81.618 87.7949 80.5873C89.969 80.0115 92.0437 79.0883 93.9445 77.8508C94.3799 77.5666 93.9784 76.8468 93.5403 77.1327C90.152 79.3293 86.2353 80.4885 82.2407 80.4771C80.2373 80.4739 78.2449 80.1694 76.3256 79.5728C74.2063 78.9131 72.1804 77.9553 70.0335 77.3872C67.7588 76.7854 65.3196 76.6548 63.1331 77.6605C62.6627 77.8768 63.0698 78.5936 63.5373 78.3785V78.3785Z" fill="#3F3D56"/>
<path d="M123.054 205.893C129.837 205.893 135.336 200.184 135.336 193.142C135.336 186.1 129.837 180.391 123.054 180.391C116.27 180.391 110.772 186.1 110.772 193.142C110.772 200.184 116.27 205.893 123.054 205.893Z" fill="#3F3D56"/>
<path d="M56.8365 36.2459C60.5231 36.2459 63.5116 33.1432 63.5116 29.3159C63.5116 25.4885 60.5231 22.3858 56.8365 22.3858C53.1499 22.3858 50.1614 25.4885 50.1614 29.3159C50.1614 33.1432 53.1499 36.2459 56.8365 36.2459Z" fill="#F2F2F2"/>
<path d="M115.311 53.7096C117.818 53.7096 119.85 51.5998 119.85 48.9972C119.85 46.3946 117.818 44.2848 115.311 44.2848C112.804 44.2848 110.772 46.3946 110.772 48.9972C110.772 51.5998 112.804 53.7096 115.311 53.7096Z" fill="#F2F2F2"/>
<path d="M41.6172 98.8934C44.1241 98.8934 46.1563 96.7836 46.1563 94.181C46.1563 91.5784 44.1241 89.4686 41.6172 89.4686C39.1103 89.4686 37.0781 91.5784 37.0781 94.181C37.0781 96.7836 39.1103 98.8934 41.6172 98.8934Z" fill="#F2F2F2"/>
<path d="M23.342 59.1726H22.8415V152.103H23.342V59.1726Z" fill="#3F3D56"/>
<path d="M23.1883 144.139C28.5791 144.139 32.9491 133.785 32.9491 121.013C32.9491 108.242 28.5791 97.8881 23.1883 97.8881C17.7976 97.8881 13.4275 108.242 13.4275 121.013C13.4275 133.785 17.7976 144.139 23.1883 144.139Z" fill="#3F3D56"/>
<path d="M23.1883 91.3922C28.5791 91.3922 32.9491 81.0386 32.9491 68.2668C32.9491 55.4951 28.5791 45.1415 23.1883 45.1415C17.7976 45.1415 13.4275 55.4951 13.4275 68.2668C13.4275 81.0386 17.7976 91.3922 23.1883 91.3922Z" fill="#3F3D56"/>
<path d="M23.4281 49.3735L22.9485 49.2242C22.9788 49.1192 25.9216 38.6498 21.0896 31.9101C18.3605 28.1036 13.6775 26.1735 7.17051 26.1735V25.6538C13.8454 25.6538 18.664 27.655 21.4926 31.6017C26.4741 38.5527 23.4591 49.2661 23.4281 49.3735Z" fill="#3F3D56"/>
<path d="M7.17054 32.4096C10.6262 32.4096 13.4275 29.5013 13.4275 25.9137C13.4275 22.3261 10.6262 19.4178 7.17054 19.4178C3.71492 19.4178 0.913589 22.3261 0.913589 25.9137C0.913589 29.5013 3.71492 32.4096 7.17054 32.4096Z" fill="#3F3D56"/>
<path d="M205.791 173.161L201.11 217.874H233.411L234.815 214.472L236.688 217.874H267.116C267.116 217.874 264.776 171.703 260.562 170.245C256.349 168.787 205.791 173.161 205.791 173.161Z" fill="#2F2E41"/>
<path d="M233.411 74.9887C242.46 74.9887 249.795 67.373 249.795 57.9785C249.795 48.5841 242.46 40.9684 233.411 40.9684C224.362 40.9684 217.027 48.5841 217.027 57.9785C217.027 67.373 224.362 74.9887 233.411 74.9887Z" fill="#FFB8B8"/>
<path d="M224.048 68.6706C224.048 68.6706 225.453 84.2228 224.048 85.1948C222.644 86.1668 246.519 85.6808 246.519 85.6808C246.519 85.6808 243.242 71.5867 246.519 64.7826L224.048 68.6706Z" fill="#FFB8B8"/>
<path d="M232.475 81.7927C232.475 81.7927 244.52 83.7405 245.519 79.8506L251.668 88.5968L252.136 176.077C252.136 176.077 202.046 182.395 200.174 172.189C198.301 161.983 219.367 81.3067 219.367 81.3067L224.67 80.9503C224.67 80.9503 231.538 81.7927 232.475 81.7927Z" fill="#D0CDE1"/>
<path d="M224.591 76.9591L216.558 79.8487L193.62 85.6808L194.556 144.001C194.556 144.001 174.895 202.322 183.79 206.696C192.684 211.07 205.323 200.864 209.068 193.574C212.813 186.284 225.921 85.1948 225.921 83.2507C225.921 81.3067 224.591 76.9591 224.591 76.9591Z" fill="#3F3D56"/>
<path d="M245.218 76.9591L248.391 79.8487L270.861 90.5408L259.626 149.347C259.626 149.347 274.606 202.808 268.989 205.724C263.371 208.64 254.945 216.902 253.072 212.042C251.2 207.182 240.173 82.3315 245.218 76.9591Z" fill="#3F3D56"/>
<path d="M258.222 154.693C258.222 154.693 237.156 145.459 236.688 153.721C236.22 161.983 260.562 167.815 260.562 165.385C260.562 162.955 258.222 154.693 258.222 154.693Z" fill="#FFB8B8"/>
<path d="M206.728 151.291C206.728 151.291 231.07 170.245 221.708 175.105C212.345 179.965 200.174 158.095 200.174 158.095L206.728 151.291Z" fill="#FFB8B8"/>
<path d="M240.685 33.0614C240.762 32.8923 240.886 32.7509 241.041 32.6554C241.196 32.56 241.375 32.5148 241.555 32.5256C234.054 32.0598 226.153 32.9675 219.877 37.2589C218.12 38.4608 216.478 39.9305 214.477 40.6078L216.102 41.9301L214.161 42.5442L217.017 44.4604C216.728 44.8007 216.359 45.0559 215.945 45.1999C215.531 45.3439 215.087 45.3716 214.66 45.2803C215.901 45.6567 216.814 46.8033 217.279 48.0562C217.743 49.3091 217.826 50.6736 217.904 52.0135C218.384 50.0802 220.416 48.9422 222.336 48.8265C224.256 48.7109 226.128 49.3685 227.996 49.8412C232.066 50.8678 236.292 51.0366 240.425 50.3376C239.021 53.2617 240.205 56.7496 241.397 59.7735L243.776 65.8112C245.096 65.9492 246.03 64.5856 247.025 63.6735C247.932 62.8422 244.321 70.1535 244.88 69.8856C245.606 69.5376 253.27 60.7536 253.629 60.0115C255.266 56.6257 256.248 52.8492 256.101 49.0638C255.953 45.2784 254.619 41.4911 252.105 38.7443C250.399 36.8795 248.039 36.553 246.299 35.0031C245.614 34.3931 245.612 33.9166 244.671 33.5609C244.359 33.4428 240.737 32.9423 240.685 33.0614Z" fill="#2F2E41"/>
<path d="M196.897 87.1388L193.62 85.6808L167.405 130.393C167.405 130.393 162.724 142.057 171.15 147.403C179.576 152.749 199.238 168.787 199.238 168.787L210.473 150.805C210.473 150.805 187.535 139.627 188.939 135.253C190.343 130.879 197.833 119.215 197.833 119.215L196.897 87.1388Z" fill="#3F3D56"/>
<path d="M264.776 89.5688L270.861 90.5408C270.861 90.5408 296.14 142.057 290.054 151.777C283.969 161.497 259.158 175.105 259.158 175.105C259.158 175.105 258.69 159.067 254.477 153.235L268.989 147.403L261.031 115.327L264.776 89.5688Z" fill="#3F3D56"/>
</g>
<defs>
<clipPath id="clip0_6_4">
<rect width="291" height="228" fill="white"/>
</clipPath>
</defs>
</svg>
